REM DIRINDEX 1\2,1\3
REM DIRNAME cjc039,folder01,folder02
TITLE ""
FILE "2241-2260.mp3" MP3
  TRACK 01 AUDIO
    TITLE "0:"
    INDEX 01 00:00:00
  TRACK 02 AUDIO
    TITLE "2:cjc039_3481"
    INDEX 01 00:00:21
  TRACK 03 AUDIO
    TITLE "0:"
    INDEX 01 00:01:36
  TRACK 04 AUDIO
    TITLE "3:cjc039_3482"
    INDEX 01 00:02:08
  TRACK 05 AUDIO
    TITLE "0:"
    INDEX 01 00:06:20
  TRACK 06 AUDIO
    TITLE "2:cjc039_3483"
    INDEX 01 00:07:68
  TRACK 07 AUDIO
    TITLE "0:"
    INDEX 01 00:09:28
  TRACK 08 AUDIO
    TITLE "3:cjc039_3484"
    INDEX 01 00:10:04
  TRACK 09 AUDIO
    TITLE "0:"
    INDEX 01 00:13:69
  TRACK 10 AUDIO
    TITLE "2:cjc039_3485"
    INDEX 01 00:15:46
  TRACK 11 AUDIO
    TITLE "0:"
    INDEX 01 00:16:59
  TRACK 12 AUDIO
    TITLE "3:cjc039_3486"
    INDEX 01 00:17:37
  TRACK 13 AUDIO
    TITLE "0:"
    INDEX 01 00:20:41
  TRACK 14 AUDIO
    TITLE "2:cjc039_3487"
    INDEX 01 00:22:15
  TRACK 15 AUDIO
    TITLE "0:"
    INDEX 01 00:23:53
  TRACK 16 AUDIO
    TITLE "3:cjc039_3488"
    INDEX 01 00:24:29
  TRACK 17 AUDIO
    TITLE "0:"
    INDEX 01 00:27:69
  TRACK 18 AUDIO
    TITLE "2:cjc039_3489"
    INDEX 01 00:29:48
  TRACK 19 AUDIO
    TITLE "0:"
    INDEX 01 00:30:54
  TRACK 20 AUDIO
    TITLE "3:cjc039_3490"
    INDEX 01 00:31:27
  TRACK 21 AUDIO
    TITLE "0:"
    INDEX 01 00:35:06
  TRACK 22 AUDIO
    TITLE "2:cjc039_3491"
    INDEX 01 00:36:56
  TRACK 23 AUDIO
    TITLE "0:"
    INDEX 01 00:37:71
  TRACK 24 AUDIO
    TITLE "3:cjc039_3492"
    INDEX 01 00:38:49
  TRACK 25 AUDIO
    TITLE "0:"
    INDEX 01 00:42:68
  TRACK 26 AUDIO
    TITLE "2:cjc039_3493"
    INDEX 01 00:44:44
  TRACK 27 AUDIO
    TITLE "0:"
    INDEX 01 00:45:51
  TRACK 28 AUDIO
    TITLE "3:cjc039_3494"
    INDEX 01 00:46:25
  TRACK 29 AUDIO
    TITLE "0:"
    INDEX 01 00:50:46
  TRACK 30 AUDIO
    TITLE "2:cjc039_3495"
    INDEX 01 00:52:20
  TRACK 31 AUDIO
    TITLE "0:"
    INDEX 01 00:53:29
  TRACK 32 AUDIO
    TITLE "3:cjc039_3496"
    INDEX 01 00:54:09
  TRACK 33 AUDIO
    TITLE "0:"
    INDEX 01 00:58:07
  TRACK 34 AUDIO
    TITLE "2:cjc039_3497"
    INDEX 01 00:59:59
  TRACK 35 AUDIO
    TITLE "0:"
    INDEX 01 01:00:74
  TRACK 36 AUDIO
    TITLE "3:cjc039_3498"
    INDEX 01 01:01:48
  TRACK 37 AUDIO
    TITLE "0:"
    INDEX 01 01:05:50
  TRACK 38 AUDIO
    TITLE "2:cjc039_3499"
    INDEX 01 01:07:27
  TRACK 39 AUDIO
    TITLE "0:"
    INDEX 01 01:08:50
  TRACK 40 AUDIO
    TITLE "3:cjc039_3500"
    INDEX 01 01:09:26
  TRACK 41 AUDIO
    TITLE "0:"
    INDEX 01 01:13:59
  TRACK 42 AUDIO
    TITLE "2:cjc039_3501"
    INDEX 01 01:15:39
  TRACK 43 AUDIO
    TITLE "0:"
    INDEX 01 01:16:44
  TRACK 44 AUDIO
    TITLE "3:cjc039_3502"
    INDEX 01 01:17:18
  TRACK 45 AUDIO
    TITLE "0:"
    INDEX 01 01:19:68
  TRACK 46 AUDIO
    TITLE "2:cjc039_3503"
    INDEX 01 01:21:45
  TRACK 47 AUDIO
    TITLE "0:"
    INDEX 01 01:22:70
  TRACK 48 AUDIO
    TITLE "3:cjc039_3504"
    INDEX 01 01:23:46
  TRACK 49 AUDIO
    TITLE "0:"
    INDEX 01 01:26:54
  TRACK 50 AUDIO
    TITLE "2:cjc039_3505"
    INDEX 01 01:28:29
  TRACK 51 AUDIO
    TITLE "0:"
    INDEX 01 01:29:39
  TRACK 52 AUDIO
    TITLE "3:cjc039_3506"
    INDEX 01 01:30:17
  TRACK 53 AUDIO
    TITLE "0:"
    INDEX 01 01:33:29
  TRACK 54 AUDIO
    TITLE "2:cjc039_3507"
    INDEX 01 01:35:04
  TRACK 55 AUDIO
    TITLE "0:"
    INDEX 01 01:36:35
  TRACK 56 AUDIO
    TITLE "3:cjc039_3508"
    INDEX 01 01:37:09
  TRACK 57 AUDIO
    TITLE "0:"
    INDEX 01 01:40:66
  TRACK 58 AUDIO
    TITLE "2:cjc039_3509"
    INDEX 01 01:42:41
  TRACK 59 AUDIO
    TITLE "0:"
    INDEX 01 01:43:68
  TRACK 60 AUDIO
    TITLE "3:cjc039_3510"
    INDEX 01 01:44:44
  TRACK 61 AUDIO
    TITLE "0:"
    INDEX 01 01:47:56
  TRACK 62 AUDIO
    TITLE "2:cjc039_3511"
    INDEX 01 01:49:32
  TRACK 63 AUDIO
    TITLE "0:"
    INDEX 01 01:50:51
  TRACK 64 AUDIO
    TITLE "3:cjc039_3512"
    INDEX 01 01:51:28
  TRACK 65 AUDIO
    TITLE "0:"
    INDEX 01 01:54:50
  TRACK 66 AUDIO
    TITLE "2:cjc039_3513"
    INDEX 01 01:56:24
  TRACK 67 AUDIO
    TITLE "0:"
    INDEX 01 01:57:29
  TRACK 68 AUDIO
    TITLE "3:cjc039_3514"
    INDEX 01 01:58:11
  TRACK 69 AUDIO
    TITLE "0:"
    INDEX 01 02:00:49
  TRACK 70 AUDIO
    TITLE "2:cjc039_3515"
    INDEX 01 02:02:26
  TRACK 71 AUDIO
    TITLE "0:"
    INDEX 01 02:04:02
  TRACK 72 AUDIO
    TITLE "3:cjc039_3516"
    INDEX 01 02:04:57
  TRACK 73 AUDIO
    TITLE "0:"
    INDEX 01 02:10:18
  TRACK 74 AUDIO
    TITLE "2:cjc039_3517"
    INDEX 01 02:11:64
  TRACK 75 AUDIO
    TITLE "0:"
    INDEX 01 02:13:03
  TRACK 76 AUDIO
    TITLE "3:cjc039_3518"
    INDEX 01 02:13:54
  TRACK 77 AUDIO
    TITLE "0:"
    INDEX 01 02:16:56
  TRACK 78 AUDIO
    TITLE "2:cjc039_3519"
    INDEX 01 02:18:35
  TRACK 79 AUDIO
    TITLE "0:"
    INDEX 01 02:19:50
  TRACK 80 AUDIO
    TITLE "3:cjc039_3520"
    INDEX 01 02:20:26
  TRACK 81 AUDIO
    TITLE "0:"
    INDEX 01 02:23:60
